<svg width="28" height="28" viewBox="0 0 28 28" fill="none" xmlns="http://www.w3.org/2000/svg">
<path d="M5.83028 13.3278C5.83028 12.6819 6.36088 12.1513 7.00682 12.1513H8.99079C9.63674 12.1513 10.1904 12.6819 10.1904 13.3509V20.8254C10.4211 20.7562 10.6979 20.687 11.0209 20.6178C11.4592 20.5024 11.7822 20.1103 11.7822 19.6489V10.375C11.7822 9.72902 12.3128 9.17535 12.9818 9.17535H14.9658C15.6117 9.17535 16.1654 9.70595 16.1654 10.375V18.9799C16.1654 18.9799 16.6498 18.7722 17.1343 18.5646C17.5034 18.4031 17.7341 18.0571 17.7341 17.6418V7.37594C17.7341 6.72999 18.2647 6.17632 18.9106 6.17632H20.8946C21.5406 6.17632 22.0712 6.70692 22.0712 7.37594V15.8193C23.7783 14.5736 25.5316 13.0741 26.9157 11.2747C27.331 10.7441 27.4463 10.052 27.2156 9.40604C24.678 2.1161 16.696 -1.75956 9.40604 0.778078C2.1161 3.31572 -1.75956 11.3208 0.778078 18.6107C1.05491 19.4412 1.42403 20.2256 1.86234 20.9869C2.20839 21.5867 2.85433 21.9327 3.54641 21.8635C3.91552 21.8405 4.37691 21.7943 4.93057 21.7251C5.4381 21.679 5.80721 21.2407 5.80721 20.7331L5.83028 13.3278Z" fill="#12161C"/>
<path d="M5.78418 25.3009C12.036 29.8456 20.7793 28.4614 25.324 22.2096C27.0542 19.8104 28 16.9267 28 13.9738C28 13.6508 27.977 13.3279 27.9539 13.0049C22.8555 20.6639 13.4202 24.2166 5.78418 25.3009Z" fill="#F0B90C"/>
</svg>
