<svg width="28" height="28" viewBox="0 0 28 28" fill="none" xmlns="http://www.w3.org/2000/svg">
<path d="M27.9999 13.941C28.0294 21.6712 21.7892 27.9704 14.059 27.9999C6.32882 28.0294 0.0296087 21.7892 0.000104196 14.059C-0.0294003 6.32883 6.21081 0.0296087 13.941 0.000104196C21.6712 -0.0294003 27.9704 6.21081 27.9999 13.941Z" fill="#8DC63F"/>
<path d="M26.9377 13.9412C26.9672 21.096 21.1991 26.9084 14.0442 26.9527C6.88937 26.9969 1.07698 21.2141 1.04748 14.0592C1.01797 6.90437 6.78611 1.09198 13.941 1.04772C21.081 1.01822 26.9082 6.78635 26.9377 13.9412Z" fill="#F9E988"/>
<path d="M14.236 1.88847C15.0621 1.74095 15.903 1.74095 16.7292 1.88847C17.5553 2.02124 18.3667 2.28678 19.1043 2.6851C19.8419 3.09816 20.4762 3.64399 21.1106 4.16032C21.7449 4.67665 22.3793 5.20773 22.9841 5.78307C23.6037 6.35841 24.1348 6.99276 24.5774 7.70086C25.0347 8.40897 25.4035 9.16134 25.6985 9.94321C26.2591 11.5217 26.4066 13.2182 26.1558 14.8705H26.0673C25.8313 13.292 25.4182 11.743 24.8577 10.2383C24.5921 9.50064 24.2676 8.77778 23.9135 8.08442C23.5299 7.39107 23.1169 6.71246 22.6596 6.06336C22.1875 5.39951 21.6269 4.82417 20.9631 4.3521C20.314 3.88003 19.5468 3.58498 18.824 3.28994C18.1011 2.99489 17.3635 2.7146 16.5964 2.49332C15.8293 2.27203 15.0621 2.10976 14.2508 1.94748L14.236 1.88847Z" fill="white"/>
<path d="M20.5647 9.36763C19.6206 9.08734 18.647 8.70378 17.6586 8.32022C17.5995 8.06943 17.3783 7.75964 16.9357 7.39083C16.2866 6.83024 15.0769 6.845 14.0295 7.09578C12.8788 6.83024 11.7281 6.72698 10.6365 6.99252C1.68185 9.45615 6.77138 15.4751 3.48163 21.5235C3.9537 22.5119 8.98422 28.3095 16.2866 26.7458C16.2866 26.7458 13.7935 20.7564 19.4141 17.8797C23.9873 15.5341 27.2918 11.2117 20.5647 9.36763Z" fill="#8BC53F"/>
<path d="M21.6712 13.3066C21.6712 13.6016 21.4352 13.8524 21.1401 13.8524C20.8451 13.8524 20.5943 13.6164 20.5943 13.3214C20.5943 13.0263 20.8303 12.7755 21.1254 12.7755C21.4204 12.7608 21.6712 13.0116 21.6712 13.3066Z" fill="white"/>
<path d="M14.0443 7.096C14.6934 7.14025 17.0537 7.90737 17.6586 8.32044C17.157 6.84521 15.4457 6.65343 14.0443 7.096Z" fill="#009345"/>
<path d="M14.6638 10.8135C14.6638 12.2003 13.5427 13.3214 12.156 13.3214C10.7692 13.3214 9.64807 12.2003 9.64807 10.8135C9.64807 9.42684 10.7692 8.30566 12.156 8.30566C13.5427 8.30566 14.6638 9.42684 14.6638 10.8135Z" fill="white"/>
<path d="M13.9262 10.8281C13.9262 11.8018 13.1443 12.5836 12.1707 12.5984C11.197 12.5984 10.4152 11.8165 10.4152 10.8429C10.4152 9.86923 11.197 9.08736 12.1707 9.08736C13.1296 9.07261 13.9262 9.85448 13.9262 10.8281Z" fill="#58595B"/>
<path d="M23.6922 14.4132C21.6564 15.8442 19.3551 16.9211 16.0801 16.9211C14.5458 16.9211 14.236 15.2983 13.2329 16.095C12.7018 16.508 10.8725 17.4227 9.41206 17.3637C7.95158 17.3046 5.57647 16.4343 4.91262 13.3215C4.64708 16.449 4.51431 18.7356 3.34888 21.3763C5.67973 25.1086 11.2413 28 16.3014 26.7608C15.7555 22.9695 19.0748 19.2667 20.9336 17.3637C21.6269 16.626 22.9989 15.4459 23.6922 14.4132Z" fill="#8BC53F"/>
<path d="M23.6185 14.5017C22.9694 15.0623 22.2465 15.5196 21.4794 15.8736C20.7123 16.2424 19.9009 16.5375 19.0748 16.744C18.2487 16.9653 17.3783 17.1128 16.5079 17.0391C15.6375 16.9653 14.7376 16.6555 14.1623 16.0064L14.1918 15.9769C14.8999 16.4342 15.726 16.5965 16.5374 16.626C17.3635 16.6555 18.1897 16.5817 19.001 16.4195C19.8272 16.2424 20.6238 16.0064 21.3909 15.6819C22.1728 15.3868 22.9104 14.9737 23.589 14.4722L23.6185 14.5017Z" fill="#58595B"/>
</svg>
