<svg width="28" height="29" viewBox="0 0 28 29" fill="none" xmlns="http://www.w3.org/2000/svg">
    <path d="M24.3481 16.9822C24.1265 17.1349 23.8678 17.225 23.5993 17.2431C23.3307 17.2611 23.0623 17.2064 22.8223 17.0847C22.2588 16.7663 21.955 16.0199 21.955 15.0026V11.885C21.955 10.3884 21.3623 9.32358 20.3706 9.0345C18.6947 8.54417 17.4433 10.597 16.9603 11.3691L13.9963 16.1662V10.3116C13.9634 8.96132 13.5243 8.15264 12.6937 7.91113C12.1448 7.75013 11.3215 7.816 10.5201 9.03816L3.89336 19.6754C3.01164 17.9885 2.55447 16.112 2.56142 14.2086C2.56142 7.7977 7.68427 2.58338 13.9963 2.58338C20.3084 2.58338 25.4496 7.7977 25.4496 14.2086V14.2415C25.4496 14.2415 25.4496 14.2635 25.4496 14.2744C25.5118 15.5149 25.1093 16.5029 24.3518 16.9822H24.3481ZM28.0073 14.2122V14.15C27.9561 6.33769 21.6916 0 13.9963 0C6.3011 0 0 6.37428 0 14.2086C0 22.0429 6.27914 28.4208 13.9963 28.4208C17.5358 28.4206 20.9406 27.064 23.5102 24.6299C23.7596 24.3949 23.9064 24.0711 23.9187 23.7286C23.9311 23.3862 23.8079 23.0526 23.5761 22.8003C23.4651 22.6776 23.331 22.578 23.1814 22.5073C23.0318 22.4366 22.8697 22.3962 22.7044 22.3883C22.5391 22.3805 22.3739 22.4055 22.2183 22.4617C22.0627 22.518 21.9198 22.6044 21.7977 22.7162C20.6914 23.7656 19.3844 24.5806 17.9553 25.1124C16.5261 25.6441 15.0043 25.8815 13.4811 25.8104C11.9579 25.7394 10.4647 25.3612 9.09131 24.6987C7.7179 24.0362 6.49252 23.1029 5.48876 21.955L11.4532 12.368V16.7919C11.4532 18.9179 12.2765 19.6059 12.9681 19.8071C13.6597 20.0084 14.7172 19.8693 15.8259 18.069L19.1192 12.7376C19.2216 12.5656 19.3204 12.4192 19.4083 12.2912V15.0026C19.4083 16.9895 20.206 18.5776 21.6038 19.3607C22.2394 19.7038 22.9556 19.8696 23.6773 19.8406C24.399 19.8116 25.0997 19.589 25.7057 19.196C27.2426 18.1971 28.0805 16.3894 27.9927 14.2122H28.0073Z" fill="#4388FF"/>
</svg>
