<svg width="24" height="26" viewBox="0 0 24 26" fill="none" xmlns="http://www.w3.org/2000/svg">
    <path opacity="0.4" d="M17.1065 0.483887H6.69867C2.9235 0.483887 0.725464 2.69435 0.725464 6.48193V19.31C0.725464 23.1597 2.9235 25.3205 6.69867 25.3205H17.1065C20.9425 25.3205 23.0784 23.1597 23.0784 19.31V6.48193C23.0784 2.69435 20.9425 0.483887 17.1065 0.483887Z" fill="#F3B82E"/>
    <path fill-rule="evenodd" clip-rule="evenodd" d="M7.0338 6.25781V6.27023C6.49861 6.27023 6.06521 6.70487 6.06521 7.23886C6.06521 7.77285 6.49861 8.2075 7.0338 8.2075H10.7457C11.2809 8.2075 11.7155 7.77285 11.7155 7.2252C11.7155 6.69245 11.2809 6.25781 10.7457 6.25781H7.0338ZM16.7698 13.8203H7.0338C6.49861 13.8203 6.06521 13.3857 6.06521 12.8517C6.06521 12.3177 6.49861 11.8818 7.0338 11.8818H16.7698C17.3038 11.8818 17.7384 12.3177 17.7384 12.8517C17.7384 13.3857 17.3038 13.8203 16.7698 13.8203ZM16.7698 19.4957H7.0339C6.66133 19.5453 6.3012 19.3591 6.10251 19.0486C5.90382 18.7257 5.90382 18.3159 6.10251 18.0055C6.3012 17.6826 6.66133 17.5087 7.0339 17.546H16.7698C17.2653 17.5957 17.6391 18.0179 17.6391 18.527C17.6391 19.0225 17.2653 19.446 16.7698 19.4957Z" fill="#F3B82E"/>
</svg>