<svg width="1953" height="1288" viewBox="0 0 1953 1288" fill="none" xmlns="http://www.w3.org/2000/svg">
<path d="M71.0573 1217.97L2.02271 1148.91L0.5 1287.5L71.0573 1217.97Z" fill="url(#paint0_linear_29350_121)"/>
<path d="M2.02271 1148.91L71.0573 1217.97L247.277 1042.59C273.165 1016.47 307.909 1002.15 344.698 1002.15H345.606C382.848 1002.38 417.593 1017.38 443.481 1043.95C480.042 1081.67 529.32 1102.57 581.777 1103.02H583.14C635.143 1103.02 683.966 1082.8 720.754 1046C756.861 1009.65 777.299 961.489 777.753 910.147C778.208 858.805 758.905 810.189 723.48 773.159L668.524 715.91L667.843 715.228C651.266 698.644 642.182 676.608 642.182 653.209C642.182 629.809 651.266 607.773 667.843 591.189C684.648 574.378 706.902 565.518 730.519 565.518C754.136 565.745 776.164 575.059 792.741 592.098C854.055 655.026 933.99 737.037 999.845 804.736C1041.86 847.9 1097.95 872.208 1158.12 873.117C1218.08 874.026 1275.08 851.762 1318.45 810.189L1321.85 807.008C1367.5 762.936 1392.93 704.097 1393.61 641.168C1394.3 578.467 1370.22 519.401 1325.72 475.101L1263.27 412.854C1246.23 395.816 1236.92 373.325 1236.92 349.471C1236.92 325.391 1246.23 302.9 1263.04 286.089L1268.72 280.409C1285.98 263.144 1308.68 253.602 1332.53 253.602H1332.76C1356.37 253.602 1378.4 262.917 1394.98 279.501L1398.38 282.908C1443.8 328.344 1504.21 353.333 1568.47 353.333C1632.51 353.333 1692.92 328.344 1738.33 282.908L1952.02 69.1337L1882.99 0.0715332L1668.39 214.073C1641.59 241.107 1605.71 255.874 1567.56 255.874C1529.64 255.874 1493.76 241.107 1466.74 214.073L1463.33 210.666C1428.36 175.453 1381.58 156.143 1332.07 156.143H1331.39C1281.66 156.37 1234.65 175.907 1199 211.574L1193.32 217.254C1158.13 252.694 1138.6 299.719 1138.6 349.699C1138.6 399.678 1158.12 446.704 1193.55 482.143L1256 544.39C1281.66 570.061 1295.74 604.138 1295.29 640.259C1294.83 676.608 1280.07 710.912 1253.5 736.356L1250.1 739.536C1199.23 788.38 1117.93 787.017 1068.88 736.583C1003.02 669.111 923.089 586.873 861.776 523.944C827.031 488.05 780.251 468.058 730.292 467.831C680.333 467.377 633.553 486.687 598.127 522.127C525.913 594.142 525.914 711.593 597.673 783.836L652.174 840.631C688.508 878.569 687.827 939.68 650.812 976.71C632.417 995.112 608.119 1005.11 582.231 1005.11H581.55C555.208 1005.11 530.682 994.657 512.515 975.802C468.233 930.139 408.963 904.922 345.379 904.468H343.789C280.886 904.468 221.843 929.003 177.334 973.53L2.02271 1148.91Z" fill="url(#paint1_linear_29350_121)"/>
<path d="M43.7579 1171.5L34.1235 1181.14L38.9407 1185.96L48.5752 1176.32L43.7579 1171.5Z" fill="white"/>
<path d="M67.878 1157.09L63.1091 1152.32L82.1845 1133.24L86.9533 1138.01L67.878 1157.09ZM106.029 1118.7L101.26 1113.93L120.335 1094.84L125.104 1099.61L106.029 1118.7ZM144.406 1080.53L139.638 1075.76L158.713 1056.68L163.482 1061.45L144.406 1080.53ZM582.458 1057.36C574.283 1057.36 565.881 1056.68 557.706 1055.31L558.841 1048.5C567.47 1049.86 576.327 1050.54 585.183 1050.32L585.41 1057.13C584.502 1057.36 583.594 1057.36 582.458 1057.36ZM612.888 1054.18L611.525 1047.59C620.155 1045.77 628.557 1043.27 636.732 1039.87L639.23 1046.23C630.828 1049.63 621.971 1052.36 612.888 1054.18ZM531.136 1048.27C522.507 1045.09 514.105 1041 506.157 1036.46L509.563 1030.55C517.057 1035.1 525.232 1038.96 533.407 1041.91L531.136 1048.27ZM182.784 1042.14L178.015 1037.37L197.091 1018.28L201.86 1023.05L182.784 1042.14ZM663.982 1033.28L660.349 1027.6C667.616 1022.83 674.656 1017.38 681.014 1011.24L685.783 1016.24C678.97 1022.6 671.476 1028.28 663.982 1033.28ZM483.675 1020.1C480.95 1017.6 477.998 1014.88 475.5 1012.15C471.867 1008.52 468.006 1004.88 464.146 1001.47L468.687 996.248C472.775 999.655 476.635 1003.52 480.496 1007.38C482.994 1009.88 485.719 1012.6 488.444 1014.88L483.675 1020.1ZM220.935 1004.2L216.393 999.201C223.206 993.067 230.473 987.388 238.194 982.162L242.054 987.842C234.56 992.613 227.52 998.065 220.935 1004.2ZM703.723 995.339L698.273 991.25C703.496 984.207 708.037 976.483 711.671 968.532L717.802 971.485C713.942 979.664 709.173 987.842 703.723 995.339ZM442.799 985.57C435.305 980.799 427.585 976.483 419.409 972.848L422.134 966.714C430.537 970.576 438.712 974.893 446.433 979.891L442.799 985.57ZM264.99 974.666L262.038 968.532C270.213 964.67 278.842 961.262 287.699 958.536L289.742 965.124C281.34 967.396 272.938 970.804 264.99 974.666ZM394.657 963.761C386.255 961.262 377.398 959.445 368.769 958.309L369.677 951.493C378.761 952.629 387.844 954.674 396.701 957.173L394.657 963.761ZM315.63 958.99L314.495 952.175C323.578 950.812 332.662 949.903 341.973 949.903V956.719C333.116 956.719 324.26 957.627 315.63 958.99ZM727.113 945.36L720.527 943.769C722.798 935.364 724.161 926.504 724.615 917.644L731.427 918.098C730.973 927.185 729.384 936.5 727.113 945.36ZM724.161 891.064C723.025 882.204 721.209 873.571 718.711 865.166L725.296 863.121C728.021 871.981 730.065 881.068 730.973 890.155L724.161 891.064ZM708.265 840.858C704.177 833.134 699.181 825.637 693.731 818.821L698.954 814.505C704.631 821.775 709.854 829.499 714.169 837.677L708.265 840.858ZM1161.53 827.454C1156.99 827.454 1152.22 827.227 1147.68 827L1148.13 820.185C1156.99 820.866 1165.85 820.866 1174.7 820.185L1175.16 827C1170.61 827.227 1166.07 827.454 1161.53 827.454ZM1202.41 822.911L1200.82 816.322C1209.45 814.278 1217.85 811.552 1226.02 808.371L1228.52 814.732C1220.12 817.913 1211.26 820.866 1202.41 822.911ZM1120.2 822.683C1111.34 820.639 1102.49 817.913 1093.86 814.505L1096.36 808.144C1104.53 811.325 1113.16 814.051 1121.56 816.095L1120.2 822.683ZM1253.27 802.465L1249.87 796.558C1257.36 792.014 1264.86 787.016 1271.67 781.337L1275.98 786.562C1268.94 792.469 1261.22 797.694 1253.27 802.465ZM1069.33 802.237C1061.39 797.467 1053.89 792.242 1046.85 786.335L1051.17 781.11C1057.98 786.789 1065.25 791.787 1072.97 796.331L1069.33 802.237ZM675.791 799.284L656.943 779.747L661.939 774.976L680.787 794.513L675.791 799.284ZM1295.97 767.934L1290.97 763.163C1297.1 756.802 1302.78 749.759 1307.78 742.717L1313.23 746.579C1308.23 754.076 1302.33 761.118 1295.97 767.934ZM1026.87 767.479L1008.02 748.169L1012.79 743.398L1031.64 762.708L1026.87 767.479ZM638.095 759.982L630.374 752.031C626.513 748.169 622.88 744.08 619.473 739.991L624.924 735.674C628.103 739.763 631.509 743.625 635.142 747.26L642.863 755.439L638.095 759.982ZM988.945 728.859L970.096 709.549L974.865 704.778L993.713 724.088L988.945 728.859ZM1327.76 722.952L1321.63 719.772C1325.72 711.821 1329.12 703.642 1331.85 695.237L1338.21 697.281C1335.48 706.141 1331.85 714.774 1327.76 722.952ZM604.713 716.591C600.625 708.413 597.219 699.553 594.721 690.693L601.306 688.876C603.577 697.281 606.984 705.687 610.844 713.411L604.713 716.591ZM951.021 690.011L932.173 670.701L936.942 665.931L955.79 685.241L951.021 690.011ZM1345.02 670.701L1338.21 669.565C1339.79 660.933 1340.7 652.073 1340.7 643.213L1347.52 643.44C1347.52 652.527 1346.61 661.614 1345.02 670.701ZM589.952 663.432C589.725 660.024 589.498 656.616 589.498 653.209C589.498 647.302 589.952 641.622 590.633 635.716L597.446 636.625C596.765 642.077 596.31 647.756 596.31 653.209C596.31 656.389 596.538 659.797 596.765 662.977L589.952 663.432ZM913.325 651.164L894.476 631.854L899.245 627.083L918.093 646.393L913.325 651.164ZM1339.57 616.633C1338.43 607.773 1336.84 599.14 1334.34 590.507L1340.93 588.69C1343.43 597.55 1345.24 606.637 1346.38 615.724L1339.57 616.633ZM875.628 612.317L856.78 593.006L861.549 588.236L880.397 607.546L875.628 612.317ZM603.123 610.953L596.765 608.682C599.717 599.822 603.577 591.416 608.119 583.465L614.023 586.873C609.709 594.369 606.075 602.548 603.123 610.953ZM837.704 573.469L824.76 560.293C822.717 558.248 820.9 556.431 818.856 554.386L823.398 549.388C825.442 551.433 827.713 553.477 829.756 555.522L842.7 568.698L837.704 573.469ZM1325.49 565.518C1321.85 557.567 1317.54 549.615 1312.77 542.119L1318.45 538.484C1323.44 546.208 1327.76 554.386 1331.62 562.792L1325.49 565.518ZM629.465 565.291L624.242 560.747C626.286 558.475 628.33 556.204 630.601 554.159C634.915 549.843 639.684 545.753 644.453 541.891L648.541 547.344C643.999 550.978 639.457 554.84 635.37 558.93C633.326 560.974 631.282 563.246 629.465 565.291ZM797.51 538.711C790.016 534.167 781.841 530.532 773.666 527.579L775.937 521.218C784.566 524.399 793.195 528.261 800.916 533.031L797.51 538.711ZM671.022 533.486L668.07 527.352C676.472 523.263 685.102 520.082 693.958 517.81L695.775 524.399C687.145 526.443 678.97 529.624 671.022 533.486ZM748.232 521.218C739.603 520.082 730.746 519.628 721.89 520.082L721.436 513.267C730.746 512.813 740.057 513.04 749.14 514.403L748.232 521.218ZM1296.88 520.991C1294.15 517.81 1291.43 514.857 1288.47 511.904L1278.25 501.681L1283.02 496.91L1293.24 507.133C1296.19 510.086 1299.15 513.267 1302.1 516.447L1296.88 520.991ZM1258.95 482.598L1239.88 463.515L1244.65 458.744L1263.72 477.827L1258.95 482.598ZM1220.57 443.978C1214.44 437.162 1208.77 429.665 1204.22 421.714L1210.13 418.306C1214.67 425.803 1219.89 433.073 1225.8 439.661L1220.57 443.978ZM1192.41 396.725C1189.24 388.092 1187.19 379.005 1185.83 369.918L1192.64 369.009C1194 377.642 1196.05 386.274 1199 394.68L1192.41 396.725ZM1191.51 342.429L1184.69 341.975C1185.15 332.66 1186.51 323.573 1188.78 314.486L1195.37 316.076C1193.1 324.709 1191.96 333.569 1191.51 342.429ZM1573.69 307.898L1573.47 301.083C1582.32 300.855 1591.18 299.947 1599.81 298.584L1600.95 305.399C1592.09 306.762 1582.78 307.671 1573.69 307.898ZM1546.22 306.762C1537.13 305.626 1528.05 304.036 1519.19 301.764L1521.01 295.176C1529.64 297.448 1538.27 299.038 1547.13 299.947L1546.22 306.762ZM1627.97 298.811L1625.92 292.223C1634.33 289.496 1642.73 286.089 1650.68 282.227L1653.63 288.361C1645.23 292.45 1636.6 295.857 1627.97 298.811ZM1493.08 292.904C1484.68 289.269 1476.27 285.18 1468.55 280.409L1471.96 274.503C1479.45 279.046 1487.63 283.135 1495.58 286.543L1493.08 292.904ZM1204.22 291.541L1198.09 288.588C1201.95 280.182 1206.95 272.231 1212.4 264.734L1217.85 268.823C1212.63 275.866 1208.08 283.59 1204.22 291.541ZM1677.25 274.73L1673.39 269.05C1680.65 264.053 1687.69 258.6 1694.28 252.694L1698.82 257.692C1692.23 263.825 1684.74 269.505 1677.25 274.73ZM1445.84 264.734C1440.39 260.418 1435.17 255.647 1430.4 250.649L1425.86 246.105L1430.63 241.335L1435.17 245.878C1439.94 250.649 1444.94 255.193 1450.16 259.282L1445.84 264.734ZM1235.56 249.059L1230.79 244.288L1231.47 243.606C1237.83 237.246 1244.65 231.566 1251.91 226.568L1255.77 232.248C1248.96 237.018 1242.37 242.471 1236.24 248.377L1235.56 249.059ZM1718.35 238.609L1713.58 233.838L1732.66 214.755L1737.42 219.526L1718.35 238.609ZM1405.2 229.749C1397.93 224.978 1389.98 220.889 1381.81 217.708L1384.3 211.347C1392.93 214.755 1401.11 219.071 1408.83 224.069L1405.2 229.749ZM1278.94 219.298L1276.21 212.937C1284.61 209.303 1293.47 206.349 1302.55 204.532L1303.91 211.12C1295.29 213.165 1286.88 215.891 1278.94 219.298ZM1356.37 210.211C1348.42 208.848 1340.48 208.167 1332.53 208.167C1331.85 208.167 1330.94 208.167 1330.26 208.167L1330.03 201.351C1330.94 201.351 1331.62 201.351 1332.53 201.351C1340.93 201.351 1349.33 202.033 1357.73 203.623L1356.37 210.211ZM1756.73 200.215L1751.96 195.445L1771.03 176.362L1775.8 181.133L1756.73 200.215ZM1794.88 162.05L1790.11 157.279L1809.18 138.196L1813.95 142.967L1794.88 162.05ZM1833.26 123.656L1828.49 118.886L1847.56 99.8028L1852.33 104.574L1833.26 123.656ZM1871.63 85.2634L1866.86 80.4926L1885.94 61.4097L1890.71 66.1804L1871.63 85.2634Z" fill="white"/>
<path d="M1915.07 32.1049L1905.43 41.7432L1910.25 46.5623L1919.88 36.924L1915.07 32.1049Z" fill="white"/>
<defs>
<linearGradient id="paint0_linear_29350_121" x1="-33.3988" y1="1162.97" x2="1880.28" y2="155.968" gradientUnits="userSpaceOnUse">
<stop stop-color="#130F26" stop-opacity="0"/>
<stop offset="0.505208" stop-color="#CDCBCB"/>
<stop offset="1" stop-color="#130F26" stop-opacity="0"/>
</linearGradient>
<linearGradient id="paint1_linear_29350_121" x1="-33.3988" y1="1162.97" x2="1880.28" y2="155.968" gradientUnits="userSpaceOnUse">
<stop stop-color="#130F26" stop-opacity="0"/>
<stop offset="0.505208" stop-color="#CDCBCB"/>
<stop offset="1" stop-color="#130F26" stop-opacity="0"/>
</linearGradient>
</defs>
</svg>
