<svg width="28" height="23" viewBox="0 0 28 23" fill="none" xmlns="http://www.w3.org/2000/svg">
<path d="M8.80572 22.7642C19.3722 22.7642 25.1507 14.0071 25.1507 6.41314C25.1507 6.16444 25.1457 5.91688 25.1344 5.67034C26.2588 4.85647 27.2292 3.84877 28 2.69449C26.9707 3.15228 25.863 3.46039 24.701 3.59931C25.8871 2.88787 26.7976 1.76235 27.2272 0.42074C26.0995 1.08995 24.8658 1.5617 23.5794 1.81567C22.5311 0.698634 21.0386 0 19.3861 0C16.2137 0 13.6411 2.57361 13.6411 5.74598C13.6411 6.19699 13.6915 6.63554 13.7901 7.05634C9.0156 6.81601 4.78191 4.52923 1.9485 1.05205C1.43818 1.92906 1.16976 2.9258 1.17065 3.94049C1.17065 5.93429 2.1848 7.69437 3.72707 8.72411C2.8148 8.69623 1.92255 8.44973 1.12535 8.00532C1.1245 8.02945 1.1245 8.05296 1.1245 8.07874C1.1245 10.8618 3.10464 13.1856 5.73323 13.7121C5.23954 13.8466 4.73012 13.9146 4.21844 13.9143C3.84892 13.9143 3.48879 13.8779 3.13879 13.8107C3.87015 16.0941 5.99086 17.7557 8.50523 17.8021C6.53902 19.3438 4.06222 20.262 1.37029 20.262C0.912361 20.2624 0.454805 20.2358 0 20.1824C2.54242 21.8126 5.5613 22.7638 8.806 22.7638" fill="#1DA1F2"/>
</svg>
